<?xml version="1.0" encoding="UTF-8" standalone="no"?><svg xmlns="http://www.w3.org/2000/svg" xmlns:xlink="http://www.w3.org/1999/xlink" contentScriptType="application/ecmascript" contentStyleType="text/css" height="432px" preserveAspectRatio="none" style="width:247px;height:432px;" version="1.1" viewBox="0 0 247 432" width="247px" zoomAndPan="magnify"><defs><filter height="300%" id="fgq3tif1n812o" width="300%" x="-1" y="-1"><feGaussianBlur result="blurOut" stdDeviation="2.0"/><feColorMatrix in="blurOut" result="blurOut2" type="matrix" values="0 0 0 0 0 0 0 0 0 0 0 0 0 0 0 0 0 0 .4 0"/><feOffset dx="4.0" dy="4.0" in="blurOut2" result="blurOut3"/><feBlend in="SourceGraphic" in2="blurOut3" mode="normal"/></filter></defs><g><ellipse cx="93" cy="20" fill="#000000" filter="url(#fgq3tif1n812o)" rx="10" ry="10" style="stroke: none; stroke-width: 1.0;"/><rect fill="#FEFECE" filter="url(#fgq3tif1n812o)" height="33.9688" rx="12.5" ry="12.5" style="stroke: #A80036; stroke-width: 1.5;" width="86" x="50" y="50"/><text fill="#000000" font-family="sans-serif" font-size="12" lengthAdjust="spacingAndGlyphs" textLength="66" x="60" y="71.1387">create ant</text><rect fill="#FEFECE" filter="url(#fgq3tif1n812o)" height="33.9688" rx="12.5" ry="12.5" style="stroke: #A80036; stroke-width: 1.5;" width="103" x="41.5" y="103.9688"/><text fill="#000000" font-family="sans-serif" font-size="12" lengthAdjust="spacingAndGlyphs" textLength="83" x="51.5" y="125.1074">create matrix</text><rect fill="#FEFECE" filter="url(#fgq3tif1n812o)" height="33.9688" rx="12.5" ry="12.5" style="stroke: #A80036; stroke-width: 1.5;" width="166" x="10" y="157.9375"/><text fill="#000000" font-family="sans-serif" font-size="12" lengthAdjust="spacingAndGlyphs" textLength="146" x="20" y="179.0762">create button handlers</text><rect fill="#FEFECE" filter="url(#fgq3tif1n812o)" height="33.9688" rx="12.5" ry="12.5" style="stroke: #A80036; stroke-width: 1.5;" width="131" x="27.5" y="273.6172"/><text fill="#000000" font-family="sans-serif" font-size="12" lengthAdjust="spacingAndGlyphs" textLength="111" x="37.5" y="294.7559">render LED matrix</text><rect fill="#FEFECE" filter="url(#fgq3tif1n812o)" height="33.9688" rx="12.5" ry="12.5" style="stroke: #A80036; stroke-width: 1.5;" width="78" x="54" y="342.5859"/><text fill="#000000" font-family="sans-serif" font-size="12" lengthAdjust="spacingAndGlyphs" textLength="58" x="64" y="363.7246">move ant</text><rect fill="#FEFECE" filter="url(#fgq3tif1n812o)" height="33.9688" rx="12.5" ry="12.5" style="stroke: #A80036; stroke-width: 1.5;" width="87" x="49.5" y="211.9063"/><text fill="#000000" font-family="sans-serif" font-size="12" lengthAdjust="spacingAndGlyphs" textLength="67" x="59.5" y="233.0449">render ant</text><polygon fill="#FEFECE" filter="url(#fgq3tif1n812o)" points="80,396.5547,106,396.5547,118,408.5547,106,420.5547,80,420.5547,68,408.5547,80,396.5547" style="stroke: #A80036; stroke-width: 1.5;"/><text fill="#000000" font-family="sans-serif" font-size="11" lengthAdjust="spacingAndGlyphs" textLength="26" x="80" y="412.3628">True</text><rect fill="#FEFECE" filter="url(#fgq3tif1n812o)" height="33.9688" rx="12.5" ry="12.5" style="stroke: #A80036; stroke-width: 1.5;" width="54" x="182.5" y="303.1172"/><text fill="#000000" font-family="sans-serif" font-size="12" lengthAdjust="spacingAndGlyphs" textLength="34" x="192.5" y="324.2559">sleep</text><line style="stroke: #A80036; stroke-width: 1.5;" x1="93" x2="93" y1="30" y2="50"/><polygon fill="#A80036" points="89,40,93,50,97,40,93,44" style="stroke: #A80036; stroke-width: 1.0;"/><line style="stroke: #A80036; stroke-width: 1.5;" x1="93" x2="93" y1="83.9688" y2="103.9688"/><polygon fill="#A80036" points="89,93.9688,93,103.9688,97,93.9688,93,97.9688" style="stroke: #A80036; stroke-width: 1.0;"/><line style="stroke: #A80036; stroke-width: 1.5;" x1="93" x2="93" y1="137.9375" y2="157.9375"/><polygon fill="#A80036" points="89,147.9375,93,157.9375,97,147.9375,93,151.9375" style="stroke: #A80036; stroke-width: 1.0;"/><line style="stroke: #A80036; stroke-width: 1.5;" x1="93" x2="93" y1="307.5859" y2="342.5859"/><polygon fill="#A80036" points="89,332.5859,93,342.5859,97,332.5859,93,336.5859" style="stroke: #A80036; stroke-width: 1.0;"/><line style="stroke: #A80036; stroke-width: 1.5;" x1="93" x2="93" y1="245.875" y2="273.6172"/><polygon fill="#A80036" points="89,263.6172,93,273.6172,97,263.6172,93,267.6172" style="stroke: #A80036; stroke-width: 1.0;"/><line style="stroke: #A80036; stroke-width: 1.5;" x1="118" x2="209.5" y1="408.5547" y2="408.5547"/><line style="stroke: #A80036; stroke-width: 1.5;" x1="209.5" x2="209.5" y1="337.0859" y2="408.5547"/><polygon fill="#A80036" points="205.5,347.0859,209.5,337.0859,213.5,347.0859,209.5,343.0859" style="stroke: #A80036; stroke-width: 1.0;"/><polygon fill="#A80036" points="205.5,265.875,209.5,255.875,213.5,265.875,209.5,261.875" style="stroke: #A80036; stroke-width: 1.5;"/><line style="stroke: #A80036; stroke-width: 1.5;" x1="209.5" x2="209.5" y1="228.8906" y2="303.1172"/><line style="stroke: #A80036; stroke-width: 1.5;" x1="209.5" x2="136.5" y1="228.8906" y2="228.8906"/><polygon fill="#A80036" points="146.5,224.8906,136.5,228.8906,146.5,232.8906,142.5,228.8906" style="stroke: #A80036; stroke-width: 1.0;"/><line style="stroke: #A80036; stroke-width: 1.5;" x1="93" x2="93" y1="376.5547" y2="396.5547"/><polygon fill="#A80036" points="89,386.5547,93,396.5547,97,386.5547,93,390.5547" style="stroke: #A80036; stroke-width: 1.0;"/><line style="stroke: #A80036; stroke-width: 1.5;" x1="93" x2="93" y1="191.9063" y2="211.9063"/><polygon fill="#A80036" points="89,201.9063,93,211.9063,97,201.9063,93,205.9063" style="stroke: #A80036; stroke-width: 1.0;"/><!--
@startuml
start

:create ant;
:create matrix;
:create button handlers;

repeat :render ant;
  :render LED matrix;
  :move ant;
backward:sleep;
repeat while (True)
@enduml

PlantUML version 1.2019.04(Fri Mar 29 15:44:36 UTC 2019)
(GPL source distribution)
Java Runtime: OpenJDK Runtime Environment
JVM: OpenJDK 64-Bit Server VM
Java Version: 1.8.0_212-8u212-b01-1~deb9u1-b01
Operating System: Linux
OS Version: 4.15.0-45-generic
Default Encoding: UTF-8
Language: en
Country: null
--></g></svg>